<?xml version="1.0" encoding="UTF-8" standalone="no"?>
<!DOCTYPE svg PUBLIC "-//W3C//DTD SVG 1.1//EN" "http://www.w3.org/Graphics/SVG/1.1/DTD/svg11.dtd">
<svg width="100%" height="100%" viewBox="0 0 140 125" version="1.1" xmlns="http://www.w3.org/2000/svg" xmlns:xlink="http://www.w3.org/1999/xlink" xml:space="preserve" xmlns:serif="http://www.serif.com/" style="fill-rule:evenodd;clip-rule:evenodd;stroke-linejoin:round;stroke-miterlimit:2;">
    <g transform="matrix(1,0,0,1,-229.342292,-280.84458)">
        <g>
            <g transform="matrix(1,0,0,1,-0.00382,-5.226456)">
                <path d="M369.151,286.071L369.151,410.902L229.346,410.902L229.346,286.071L369.151,286.071ZM270.568,366.358C262.636,374.759 245.075,394.377 242.691,396.491C240.004,398.872 243.617,398.704 243.815,398.695C250.198,398.399 263.304,398.917 264.707,398.289C266.407,397.528 266.134,397.163 278.413,384.21C279.465,383.101 279.358,383.021 291.392,370.188C295.25,366.073 295.369,365.559 294.302,364.247C292.378,361.879 285.905,355.023 285.161,354.235C282.916,351.857 282.288,353.633 277.74,358.513C277.16,359.135 277.176,359.138 270.568,366.358ZM356.099,310.599C356.102,310.354 356.136,307.772 355.881,307.544C354.883,306.654 353.689,308.148 353.568,308.3C352.906,309.128 352.897,309.099 352.16,309.878C350.61,311.519 344.924,317.859 344.497,318.305C338.335,324.726 337.748,324.818 337.875,329.589C337.98,333.49 337.932,333.485 337.932,351.591C337.932,364.097 337.823,364.083 337.834,376.591C337.837,380.59 339.042,380.747 345.161,387.302C345.856,388.047 352.27,394.918 353.623,396.82C353.733,396.975 354.826,398.51 355.856,397.616C356.104,397.401 355.978,397.339 356.035,392.594C356.083,388.672 355.971,314.292 356.099,310.599ZM259.126,332.592C259.129,326.224 259.393,325.849 257.582,323.804C257.168,323.338 254.155,319.935 252.353,318.031C251.575,317.209 243.763,308.951 242.862,307.543C242.314,306.687 240.661,305.874 240.823,308.591C241.127,313.691 240.906,347.569 240.963,382.591C240.975,389.591 240.843,389.581 240.813,391.592C240.797,392.728 240.616,393.22 241.757,393.137C242.387,393.092 243.073,392.679 243.308,392.427C244.432,391.22 258.161,375.941 258.742,374.556C259.228,373.397 259.121,373.337 259.126,332.592ZM354.476,302.412C355.287,300.817 354.625,300.417 352.84,300.478C348.488,300.626 344.543,300.64 343.822,300.642C334.611,300.674 334.622,300.646 333.822,300.659C330.432,300.715 330.584,301.413 327.143,304.882C326.185,305.848 300.21,334.675 298.728,335.312C297.484,335.846 270.023,305.987 269.208,305.206C265.796,301.938 266.301,300.705 262.822,300.668C261.3,300.651 243.91,300.464 243.799,300.466C241.573,300.495 241.703,301.778 242.645,302.692C243.259,303.287 248.053,307.935 250.05,310.405C251.996,312.812 290.542,354.321 293.68,357.719C297.062,361.38 297.883,363.218 300.048,360.839C302.452,358.198 354.413,302.538 354.476,302.412Z" style="fill:rgb(234,88,11);"/>
            </g>
            <g id="Background" transform="matrix(1,0,0,1,186.317837,251.864324)">
                <path d="M72.804,75.501C72.799,116.247 72.906,116.306 72.42,117.465C71.839,118.85 58.11,134.129 56.986,135.336C56.752,135.588 56.065,136.001 55.436,136.047C54.294,136.13 54.475,135.638 54.492,134.501C54.522,132.491 54.653,132.5 54.642,125.5C54.584,90.478 54.805,56.601 54.501,51.5C54.339,48.783 55.992,49.596 56.541,50.453C57.441,51.86 65.254,60.118 66.031,60.94C67.833,62.844 70.847,66.247 71.26,66.714C73.071,68.759 72.807,69.133 72.804,75.501Z" style="fill:white;"/>
                <path d="M84.246,109.267C90.854,102.047 90.838,102.044 91.418,101.422C95.967,96.542 96.594,94.766 98.839,97.144C99.584,97.933 106.056,104.788 107.981,107.156C109.047,108.469 108.929,108.983 105.07,113.097C93.037,125.93 93.143,126.01 92.091,127.119C79.812,140.072 80.085,140.437 78.386,141.198C76.983,141.826 63.876,141.308 57.493,141.604C57.295,141.613 53.683,141.781 56.369,139.4C58.754,137.286 76.314,117.668 84.246,109.267Z" style="fill:white;"/>
            </g>
        </g>
    </g>
</svg>
